<svg id="Layer_1" data-name="Layer 1" xmlns="http://www.w3.org/2000/svg" viewBox="0 0 553.75 491.92"><defs><style>.cls-1{fill:#231f20;}.cls-2{fill:#fcc79b;}.cls-3{fill:#f26630;}.cls-4{fill:#fbae42;}.cls-5{opacity:0.32;}</style></defs><path class="cls-1" d="M128.21,473.86c-7.22.69-7.92,1.13-7.92,8.44v34.89c0,7.31.79,7.57,7.92,8.35V528H104.89v-2.44c7.23-.87,7.92-1,7.92-8.35v-17.4H83.06v17.4c0,7.22.69,7.48,7.83,8.35V528H67.66v-2.44c7-.78,7.83-1,7.83-8.35V482.3c0-7.31-.79-7.75-7.83-8.44v-2.44H90.89v2.44c-7,.61-7.83,1.22-7.83,8.44v13.83h29.75V482.3c0-7.22-1-7.83-7.92-8.44v-2.44h23.32Z" transform="translate(-67.66 -57.28)"/><path class="cls-1" d="M194.68,493.43c-6.09.7-7.14,2.27-10,6.53-2.26,3.31-4.61,6.79-7.74,11.48,3.74,3.57,12.27,13,14.79,17.23l-.52,1c-4.79-.44-9.66-2.44-10.7-3.57s-5.22-5.22-8-8.18c-6.35,8.44-12.09,11.31-18.36,11.31-11.22,0-17.4-8.17-17.4-15.74.09-8.1,4.7-11.32,13.05-16.62-4.17-3.57-6.78-7.57-6.78-12.36.08-7.83,6.61-13.74,14.44-13.74,7.22,0,13,5,13,12a10.18,10.18,0,0,1-3.74,7.75,77.33,77.33,0,0,1-7.48,4.87c2.87,2.43,10,8.35,15.57,13.83a61.34,61.34,0,0,0,5.4-9.92c1.65-4,1-5.13-5.4-5.83v-2.52h19.93Zm-38.46,29.76c6,0,9.4-1.91,14-7.74-4.52-5.05-10.61-10.18-18.1-16.53-6.17,4.08-7.91,7.83-7.91,12.26C144.22,519.36,150.57,523.19,156.22,523.19Zm.26-49.42c-4.35,0-7,3.39-7,8.53,0,4.44,2.26,7.13,7.48,11.31,4.87-3.48,7-6.27,7-10.7C163.79,477.86,161.27,473.77,156.48,473.77Z" transform="translate(-67.66 -57.28)"/><path class="cls-1" d="M230.52,484.65c-1.48-5.75-3.92-11.4-12.09-11.4-6.79,0-9.14,5-9.14,9.48,0,6,3.83,9,11.05,12.79,10.44,5.4,15,9.4,15,17.66,0,9.14-7.92,16.1-19.15,16.1a36.34,36.34,0,0,1-13.31-2.87,120.47,120.47,0,0,1-2.35-13l2.7-.7c1.74,5.83,5.57,13.4,14.62,13.4,6.26,0,10.09-4.35,10.09-10,0-6.7-3.57-9.4-11.22-13.58-9.14-5-14.27-9.13-14.27-17.22,0-7.75,6.44-15.06,17.92-15.06a55.57,55.57,0,0,1,11.49,1.66c.34,3.13.69,6.61,1.39,12.26Z" transform="translate(-67.66 -57.28)"/><path class="cls-1" d="M311.54,485a27.1,27.1,0,0,0-2.7-6.44c-1.65-3-3-3.66-7.83-3.66H291.7c-2.52,0-2.78.26-2.78,2.79v20.09h10.79c6.26,0,6.69-1,8-7.13h2.61v18.18h-2.7c-1.13-6.09-1.74-7.48-7.91-7.48H288.92v15.58c0,7.57.87,7.91,8.78,8.61V528H273.52v-2.44c7-.52,7.83-1.13,7.83-8.61V482.47c0-7.57-.87-7.92-7.83-8.61v-2.44H301.1c7.83,0,10.79-.09,12.26-.17.09,3.13.44,9.22.87,13.4Z" transform="translate(-67.66 -57.28)"/><path class="cls-1" d="M318.84,528v-2.44c5.48-.52,6.09-1,6.09-6.87V500.74c0-5.39-.26-5.74-5.48-6.61V492a56.52,56.52,0,0,0,12.36-3.48v30.11c0,5.91.61,6.35,6.26,6.87V528ZM327.89,480a4.77,4.77,0,0,1-4.61-4.62,4.7,4.7,0,0,1,4.7-4.78,4.55,4.55,0,0,1,4.44,4.78A4.64,4.64,0,0,1,327.89,480Z" transform="translate(-67.66 -57.28)"/><path class="cls-1" d="M362.52,528h-20v-2.44c5.48-.52,6-1,6-6.61v-18.1c0-5.74-.35-6-5.39-6.61V492a47.8,47.8,0,0,0,12.26-3.57v9.58c3.05-4.53,6.7-9.31,11.05-9.31,3.22,0,5.05,2,5.05,4.17a5.84,5.84,0,0,1-3,4.79,1.72,1.72,0,0,1-2.26-.18c-1.31-1.3-2.35-2.17-3.92-2.17-1.82,0-5,2.7-7,7.13v16.36c0,5.74.44,6.18,7.14,6.7Z" transform="translate(-67.66 -57.28)"/><path class="cls-1" d="M406,520.58c-5.57,7-11.66,8.44-14.44,8.44-10.62,0-17.06-8.7-17.06-18.71a22.33,22.33,0,0,1,5.66-15.22c3.65-4.09,8.44-6.35,13-6.35a13.57,13.57,0,0,1,13.31,13.48c-.08,1.74-.34,2.53-1.74,2.87-1.74.35-12.87,1.13-23.23,1.48-.26,11.66,6.88,16.45,13,16.45,3.57,0,6.88-1.48,10.1-4.44Zm-15-28.54c-4,0-7.91,3.74-9.13,10.79,4.87,0,9.74,0,14.88-.26,1.56,0,2.08-.44,2.08-1.74C399,496.22,395.93,492,391.05,492Z" transform="translate(-67.66 -57.28)"/><path class="cls-1" d="M411.84,491.61a56.65,56.65,0,0,0,12.62-3.74v7c.26-.18,7.22-4.18,7.57-4.35a12.14,12.14,0,0,1,5.05-1.74c9.57,0,15.4,8,15.4,16.61,0,13.23-10.44,21.58-21.84,23.67a14.41,14.41,0,0,1-6.18-1.57V539.2c0,6.44.7,7,7.4,7.57v2.44H411.24v-2.44c5.65-.61,6.35-1,6.35-6.87V500.31c0-5.22-.18-5.57-5.75-6.35Zm12.62,29.75a12.61,12.61,0,0,0,8.27,3.4c7.56,0,12.44-6.35,12.44-16.1,0-9.4-5.48-14.7-11.66-14.7-3.05,0-6.7,2-9.05,3.74Z" transform="translate(-67.66 -57.28)"/><path class="cls-1" d="M457.61,528v-2.44c5.56-.52,6.26-1,6.26-6.7V477.16c0-5.3-.43-5.83-6-6.52v-2.26a62.24,62.24,0,0,0,12.87-3v53.42c0,5.74.53,6.18,6.18,6.7V528Z" transform="translate(-67.66 -57.28)"/><path class="cls-1" d="M509,529a6.4,6.4,0,0,1-4.09-1.65,8,8,0,0,1-2.09-3.92c-3.48,2.35-7.75,5.57-10.44,5.57a10.67,10.67,0,0,1-10.62-10.7c0-4.27,2.35-7.05,7.14-8.7,5.3-1.83,11.83-4.09,13.74-5.66v-1.74c0-6.18-3.13-9.74-7.65-9.74a5,5,0,0,0-4.09,2c-1,1.22-1.57,3.13-2.35,5.65a2.42,2.42,0,0,1-2.52,2,4.18,4.18,0,0,1-3.83-3.82c0-1.22,1.13-2.27,2.87-3.48,2.52-1.83,7.57-5.05,12.53-6.09a12.08,12.08,0,0,1,7.31,2.34c3,2.62,4.43,5.57,4.43,10.1V518c0,4,1.48,5.22,3,5.22a7,7,0,0,0,3.13-1l.87,2.44Zm-6.36-22c-1.91.95-6.09,2.78-8.09,3.65-3.3,1.48-5.3,3.13-5.3,6.35a6.32,6.32,0,0,0,6.26,6.7,11.55,11.55,0,0,0,7.13-3.13Z" transform="translate(-67.66 -57.28)"/><path class="cls-1" d="M552.53,520.15c-3.83,5-9.66,8.87-14.88,8.87-11,0-17.58-9-17.58-18.27,0-6.87,3-12.62,8.79-17.05a23,23,0,0,1,13.23-5c3.91,0,6.78,1.21,8.09,2.34a2.75,2.75,0,0,1,1.39,2.53c0,2.09-2.18,3.91-3.13,3.91-.44,0-.79-.17-1.66-.87A12.92,12.92,0,0,0,538,493c-5.75,0-10.79,4.87-10.79,13.92-.09,12.09,8.18,16.1,13.22,16.1,3.66,0,6.61-1,10.62-4.79Z" transform="translate(-67.66 -57.28)"/><path class="cls-1" d="M588.8,520.58c-5.56,7-11.65,8.44-14.44,8.44-10.61,0-17.05-8.7-17.05-18.71A22.37,22.37,0,0,1,563,495.09c3.66-4.09,8.44-6.35,13-6.35a13.57,13.57,0,0,1,13.31,13.48c-.09,1.74-.35,2.53-1.74,2.87-1.74.35-12.88,1.13-23.23,1.48C564,518.23,571.14,523,577.32,523c3.57,0,6.87-1.48,10.09-4.44Zm-15-28.54c-4,0-7.92,3.74-9.14,10.79,4.88,0,9.75,0,14.88-.26,1.57,0,2.09-.44,2.09-1.74C581.76,496.22,578.71,492,573.84,492Z" transform="translate(-67.66 -57.28)"/><path class="cls-1" d="M617.17,500.13c-1.57-5-3.83-8.52-9.14-8.52a5.27,5.27,0,0,0-5.39,5.65c0,3.74,2.52,5.48,7.39,7.75,7.48,3.56,11.22,6.17,11.22,11.92,0,8-7.3,12.09-14.18,12.09a22.67,22.67,0,0,1-10.35-2.44c-.44-2.52-1.22-7.3-1.57-10.18l2.53-.43c1.56,5.57,4.61,10.09,10.7,10.09a5.8,5.8,0,0,0,6.09-5.91c0-3.92-2.35-5.92-7-8.18-6.09-3-11-5.75-11-12s5.39-11.22,13.57-11.22a44.77,44.77,0,0,1,8.35,1.13c.26,2.09.87,7.57,1.31,9.65Z" transform="translate(-67.66 -57.28)"/><path class="cls-2" d="M208.84,286.13c.52-19.75,2-34,4.77-44.67a100.33,100.33,0,0,1,12.47-28.2l-49.8-59.87C164.35,170.88,153,193.3,144.44,221.9a188.57,188.57,0,0,0-5.06,22.37Z" transform="translate(-67.66 -57.28)"/><path class="cls-2" d="M211.08,412.47c-.71-22.72-1.32-42.73-1.76-60.39l-74.81-10.34c.54,21.79,1.84,45.27,3.8,70.12Z" transform="translate(-67.66 -57.28)"/><path class="cls-2" d="M277.53,164a329.35,329.35,0,0,1,49.35-26L302.65,66.68a303.36,303.36,0,0,0-57.92,25.94Z" transform="translate(-67.66 -57.28)"/><path class="cls-2" d="M208.74,290.71l-70.08-42c-3.7,24.37-5,54.53-4.24,89.11l74.81,10.54C208.68,325.33,208.45,306.39,208.74,290.71Z" transform="translate(-67.66 -57.28)"/><path class="cls-2" d="M211.2,416.13l-72.59-.43q2,24.19,4.7,50H213c-.46-10.34-1.1-26-1.7-45.07C211.29,419.1,211.24,417.61,211.2,416.13Z" transform="translate(-67.66 -57.28)"/><path class="cls-2" d="M241.38,94.58l-3.4,2c-4.4,2.68-32.83,16.1-59.42,53.5l49.62,59.95c9.35-13.78,23.81-28.9,46.25-44Z" transform="translate(-67.66 -57.28)"/><path class="cls-2" d="M490.05,286.13c-.52-19.75-2-34-4.76-44.67a100.33,100.33,0,0,0-12.47-28.2l49.8-59.87c11.92,17.49,23.33,39.91,31.83,68.51a190.49,190.49,0,0,1,5.07,22.37Z" transform="translate(-67.66 -57.28)"/><path class="cls-2" d="M487.81,412.47c.71-22.72,1.33-42.73,1.77-60.39l74.81-10.34c-.54,21.79-1.85,45.27-3.8,70.12Z" transform="translate(-67.66 -57.28)"/><path class="cls-2" d="M421.36,164A329.35,329.35,0,0,0,372,138l24.24-71.36a303,303,0,0,1,57.91,25.94Z" transform="translate(-67.66 -57.28)"/><path class="cls-2" d="M490.15,290.71l70.08-42c3.7,24.37,5,54.53,4.24,89.11l-74.8,10.54C490.21,325.33,490.44,306.39,490.15,290.71Z" transform="translate(-67.66 -57.28)"/><path class="cls-2" d="M487.7,416.13l72.58-.43q-2,24.19-4.69,50H485.85c.46-10.34,1.11-26,1.7-45.07C487.6,419.1,487.65,417.61,487.7,416.13Z" transform="translate(-67.66 -57.28)"/><path class="cls-2" d="M352.34,57.49h0a23.42,23.42,0,0,0-2.67-.19v0h-.45v0a23.59,23.59,0,0,0-2.67.19h0c-10.62.68-24.33,3.2-39.94,7.95l23.87,71.07q8.08-3.4,16.92-6.74a18.16,18.16,0,0,1,2.05-.39,18.3,18.3,0,0,1,2,.39q8.85,3.33,16.92,6.74l23.88-71.07C376.67,60.69,363,58.17,352.34,57.49Z" transform="translate(-67.66 -57.28)"/><path class="cls-2" d="M457.51,94.58c1.14.67,2.27,1.34,3.4,2,4.41,2.68,32.84,16.1,59.42,53.5l-49.62,59.95c-9.35-13.78-23.81-28.9-46.25-44Z" transform="translate(-67.66 -57.28)"/><path class="cls-3" d="M442.36,421.65c-19.43,34.16-68.61,37.09-76.53,37.42-51.11,2.11-104.74-32.75-108.85-69.74-3.63-32.58,33.42-46.67,31.46-85-1.39-27.24-21.51-48.67-39.12-62.93,20.07-2.92,69.49-7.18,116.51,21.26C422.18,296.72,469.28,374.31,442.36,421.65Z" transform="translate(-67.66 -57.28)"/><path class="cls-4" d="M329.45,417.21c-2.58-2-14.1-11.19-15.5-25.33-2.09-21.06,20.61-30,25.7-53.29,2.58-11.78,1.09-29.29-17.38-54,14.55,7.83,40.65,19.9,62.36,43.08s42.68,51.5,34.77,72.95C409.94,426.23,356.17,438.43,329.45,417.21Z" transform="translate(-67.66 -57.28)"/><path class="cls-1" d="M298.88,400c-.86-1.49-16.33,1.09-23.32,12.35-8.65,14-2,37.62,11.43,42.87,8.6,3.36,19.76-.9,20.17-4.6S296.29,446,289,435.06c-1.23-1.85-6-9-4.6-16.95C286.41,406.63,299.72,401.49,298.88,400Z" transform="translate(-67.66 -57.28)"/><path class="cls-1" d="M325,408.69c-.86-1.49-16.33,1.09-23.31,12.36-8.65,13.95-2,37.61,11.42,42.87,8.6,3.35,19.76-.9,20.18-4.6s-10.88-4.65-18.15-15.59c-1.23-1.85-6-9-4.6-17C312.54,415.3,325.85,410.15,325,408.69Z" transform="translate(-67.66 -57.28)"/><path class="cls-1" d="M413.84,405.5c.86-1.49,16.33,1.08,23.32,12.35,8.65,13.95,2,37.61-11.43,42.87-8.6,3.35-19.76-.9-20.17-4.6s10.87-4.65,18.14-15.59c1.23-1.85,6-9,4.6-17C426.32,412.1,413,407,413.84,405.5Z" transform="translate(-67.66 -57.28)"/><path class="cls-1" d="M387.14,410.19c.86-1.49,16.33,1.09,23.32,12.36,8.65,13.95,2,37.61-11.43,42.86-8.6,3.36-19.76-.89-20.17-4.59s10.87-4.65,18.14-15.59c1.23-1.85,6-9,4.6-17C399.62,416.79,386.31,411.65,387.14,410.19Z" transform="translate(-67.66 -57.28)"/><g class="cls-5"><path class="cls-1" d="M157.94,246.53a33.15,33.15,0,0,0-1-7.68c-.79-2.61-1.49-3.41-6.13-4.57l-8.45-2.09-10.2,41.12c-1.64,6.59-1.19,7.69,6.7,10.18l-.58,2.37-24.58-6.1.59-2.37c8,1.45,8.86.77,10.52-5.9l10.21-41.12-7.69-1.91c-4.64-1.15-6.12-1-8.18,1.19a39.92,39.92,0,0,0-4.49,6.15l-2.53-.63c1.78-5,3.61-10.22,5-14.88l1.94.48c.76,2.34,1.71,2.49,4.08,3.07l33.44,8.3c2.36.59,3.12.42,4.79-.87l2,.5c-1,4-2.15,10.14-2.95,15.14Z" transform="translate(-67.66 -57.28)"/><path class="cls-1" d="M204.22,288c-1.05,2.07-5.49,10.2-7,12.53l-41-10.19.59-2.36c8,1.35,8.78.74,10.5-6.19l8.28-33.35c1.86-7.51,1-8.17-5.15-10.33l.59-2.36,25.84,6.41c7.94,2,11.25,2.7,12.29,2.87-.44,2.13-1.68,8.55-2.45,13.11l-2.64-.21a29.12,29.12,0,0,0-.94-7c-.66-3.12-2.45-4.19-7.52-5.45l-8-2c-2.62-.65-2.85-.44-3.46,2l-4.63,18.66,9.37,2.33c6.33,1.57,7.07.41,9.51-5.08L201,262l-4.32,17.39-2.62-.65c.41-6.35-.05-7.36-6.13-8.87l-9.29-2.31-4.17,16.81c-1.47,5.91.26,6.88,4.46,8l7.86,1.95c5.15,1.28,6.18.73,8.58-1,2-1.37,4.68-4.39,6.49-6.63Z" transform="translate(-67.66 -57.28)"/><path class="cls-1" d="M253.83,314.53l.58-2.37c7.1,1,7.47.6,9.63-8.46l8.64-34.43c-10.76,13.74-27.9,35.12-32.7,41.82l-2.2-.55c-1-8.39-4.74-34-7.36-50.86-8.78,29.2-10.52,35.85-10.91,37.45-1.09,4.75.85,5.95,6.45,8l-.59,2.36-20-5,.58-2.37c5,.71,7.3.2,9.11-4.19,1.43-3.59,2.27-6.61,12.11-36.89,1.43-4.3.94-6-6.32-8.47l.59-2.36,14.69,3.64,8,47.45,30.64-37.85,14.77,3.67-.58,2.36c-7.47-1-8.59-.43-9.89,5.53l-7.71,32.51c-1.9,9.12-1.76,9.6,5.49,12.21l-.59,2.36Z" transform="translate(-67.66 -57.28)"/><path class="cls-1" d="M319.29,272.5c6,1.49,10.54,3.78,13.37,7.18s4,7.8,2.6,13.37c-3.06,12.33-14.85,14.69-22.88,12.7a15.31,15.31,0,0,1-2.23-.73l-5.45-3-3.27,13.17c-1.76,7.1-1.21,7.41,6.35,10.19l-.59,2.36L283.88,322l.59-2.37c7.45,1,7.91.62,9.65-6.39l8.32-33.52c1.87-7.52,1-7.92-5.52-10.25l.58-2.36Zm-13.86,26.59a15.73,15.73,0,0,0,5.89,2.63c5.66,1.41,13.38.28,16-10.36,2.31-9.29-2.85-14.52-9.94-16.28-2.45-.61-4.33-.62-5-.16-.83.42-1.33,1.38-1.9,3.66Z" transform="translate(-67.66 -57.28)"/><path class="cls-1" d="M376.75,285.51c14.44,3.58,24.61,17.85,20.44,34.66-4.51,18.15-19.64,26.41-35.18,22.55-16.21-4-25-19.29-21-35.16C344.73,292.44,358.93,281.09,376.75,285.51Zm-2.47,2.7c-9.45-2.34-20,3.46-24,19.25s1.85,29.41,13.84,32.39c10.22,2.53,19.79-3.16,23.83-19.46C392.39,302.66,385.35,291,374.28,288.21Z" transform="translate(-67.66 -57.28)"/><path class="cls-1" d="M448.28,363.5c-1.09-.27-2-.58-3.08-.94-6.06-1.95-8.95-4.37-11.37-10.53-2.05-5.08-3.77-11.16-5.41-16.13-1-3.13-2-3.9-6.29-5l-3-.74-3.29,13.26c-1.78,7.18-1,7.83,5.63,10.18l-.59,2.37-22.54-5.6L399,348c7.2,1,7.88.79,9.66-6.39L417,308c1.78-7.18.92-7.67-5.57-10.08l.59-2.37,21.53,5.35c6.17,1.53,10.12,3.31,12.8,6.22,2.92,3.06,4.25,7.42,3,12.57-1.81,7.27-7.58,10.67-14.5,11.82.87,3,3.1,9.56,4.69,14A79,79,0,0,0,444,355.81a12.4,12.4,0,0,0,5.2,5.41Zm-24.34-35.17c4.39,1.09,7.34,1.1,9.89-.15,3.9-1.63,6.09-4.67,7.22-9.23,2.25-9-2.93-13.82-9.43-15.43-2.45-.61-4-.63-4.69-.27-.91.41-1.37,1.19-1.91,3.38l-5.14,20.69Z" transform="translate(-67.66 -57.28)"/><path class="cls-1" d="M484.59,371.8l.59-2.37c5.65.69,6.54,0,6.15-3.49s-.92-8.2-1.37-14l-18.24-4.52c-2.3,3.46-4.38,6.44-6.42,9.61-3.22,5-2.21,6,4.51,8.56l-.59,2.36-19.51-4.84.59-2.36c5.49.64,7,.39,11.83-6.48l28.48-40,2.83.16c1.74,15.76,3.6,33.17,5.3,49.1.87,8,1.47,8.88,7.29,11l-.58,2.37Zm2.73-47.11c-4.51,6.6-9.29,13.57-13.48,19.61l15.79,3.92Z" transform="translate(-67.66 -57.28)"/><path class="cls-1" d="M558.73,390.92c-1.1-.28-2-.59-3.09-.95-6-2-8.95-4.37-11.36-10.53-2.06-5.08-3.78-11.16-5.41-16.13-1-3.12-2-3.9-6.3-5l-3-.74-3.29,13.26c-1.78,7.18-1,7.83,5.63,10.18l-.58,2.37-22.55-5.6.59-2.36c7.2,1,7.87.79,9.65-6.39l8.36-33.69c1.79-7.18.92-7.67-5.56-10.08l.58-2.37L544,328.27c6.16,1.53,10.11,3.31,12.79,6.22,2.92,3.06,4.26,7.42,3,12.57-1.8,7.27-7.58,10.67-14.5,11.82.87,3,3.1,9.56,4.69,14a79,79,0,0,0,4.51,10.35,12.54,12.54,0,0,0,5.2,5.42Zm-24.35-35.18c4.39,1.09,7.34,1.1,9.9-.15,3.9-1.63,6.09-4.67,7.22-9.23,2.24-9-2.94-13.82-9.44-15.43-2.45-.61-4-.63-4.68-.27-.91.41-1.37,1.19-1.92,3.38l-5.13,20.69Z" transform="translate(-67.66 -57.28)"/><path class="cls-1" d="M620.82,349.85c-6.08-.79-7.32-.11-12,4.45-5.33,5.22-9.9,10.28-15.9,16.76a9.26,9.26,0,0,0-2.51,4.67l-2.58,10.39c-1.74,7-1.1,7.7,6.56,10.41l-.58,2.37-24.24-6,.59-2.36c7.93.89,8.57.87,10.33-6.23l2.7-10.89c.42-1.69.27-2.53-.47-5.32-1.6-6.22-3.15-12.25-5.74-21.32-1.87-6.56-2.46-7.78-8.05-9.8l.58-2.36,20.78,5.15-.59,2.37c-6.29-.67-6.22.51-5.42,3.76,1.94,7.38,4,16,6,23.18,4.45-4.9,11.55-12.91,15.06-17,3-3.74,3-4.64-3.55-7l.58-2.36,19.09,4.74Z" transform="translate(-67.66 -57.28)"/></g></svg>